<svg height="512pt" viewBox="0 0 512 512" width="512pt" xmlns="http://www.w3.org/2000/svg"><path d="m85.578125 64.390625 170.421875 170.414063 49.6875-49.691407c-41.816406-46.90625-64.6875-106.738281-64.6875-170.097656v-15.015625c-59.527344 3.433594-113.601562 27.167969-155.421875 64.390625zm0 0"/><path d="m15 241.015625c63.359375 0 123.191406 22.875 170.101562 64.6875l49.6875-49.6875-170.421874-170.410156c-37.210938 41.816406-60.9375 95.890625-64.367188 155.410156zm0 0"/><path d="m163.851562 326.957031c-41.210937-36.171875-93.507812-55.941406-148.851562-55.941406h-14.99609375c3.43749975 59.523437 27.17187475 113.589844 64.38671875 155.40625zm0 0"/><path d="m426.410156 64.382812c-41.816406-37.214843-95.886718-60.949218-155.410156-64.382812v15.015625c0 55.339844 19.765625 107.636719 55.9375 148.847656zm0 0"/><path d="m497 271.015625c-63.359375 0-123.191406-22.871094-170.101562-64.6875l-49.683594 49.6875 170.402344 170.398437c37.210937-41.8125 60.941406-95.878906 64.378906-155.394531h-14.996094zm0 0"/><path d="m348.148438 185.074219c41.210937 36.171875 93.507812 55.941406 148.851562 55.941406h15c-3.429688-59.523437-27.160156-113.601563-64.375-155.417969zm0 0"/><path d="m426.402344 447.625-170.402344-170.394531-49.6875 49.6875c41.816406 46.910156 64.6875 106.742187 64.6875 170.097656v14.984375c59.519531-3.433594 113.585938-27.164062 155.402344-64.375zm0 0"/><path d="m241 497.015625c0-55.339844-19.765625-107.632813-55.9375-148.84375l-99.457031 99.460937c41.816406 37.207032 95.878906 60.933594 155.394531 64.367188zm0 0"/></svg>